<?xml version="1.0" encoding="utf-8"?><svg viewBox="0 0 16 16" xmlns="http://www.w3.org/2000/svg" xmlns:xlink="http://www.w3.org/1999/xlink"><style>:root>svg{display:none}:root>svg:target{display:block}</style><svg fill="none" viewBox="0 0 16 16" id="check" xmlns="http://www.w3.org/2000/svg"><path fill-rule="evenodd" clip-rule="evenodd" d="M14 4.022a1 1 0 01-.001 1.414l-6.53 6.53a1 1 0 01-1.384.03L2.825 9.01a1 1 0 011.352-1.474l2.201 2.017a.5.5 0 00.692-.015l5.515-5.515a1 1 0 011.414 0z" fill="#96C268"/></svg><svg fill="none" viewBox="0 0 14 15" id="close" xmlns="http://www.w3.org/2000/svg"><path fill-rule="evenodd" clip-rule="evenodd" d="M13.533.731L7 7.288.443.73 0 1.174l6.533 6.557L0 14.288l.443.443L7 8.174l6.533 6.557.467-.443L7.443 7.73 14 1.174l-.467-.443z" fill="#000" fill-opacity=".24"/></svg><svg fill="none" viewBox="0 0 16 16" id="cross" xmlns="http://www.w3.org/2000/svg"><path fill-rule="evenodd" clip-rule="evenodd" d="M11.536 3.05a1 1 0 111.414 1.414L9.414 8l3.536 3.536a1 1 0 11-1.414 1.414L8 9.414 4.464 12.95a1 1 0 01-1.414-1.414L6.586 8 3.05 4.464A1 1 0 114.464 3.05L8 6.586l3.536-3.536z" fill="#DE8270"/></svg><svg fill="none" viewBox="0 0 16 16" id="key" xmlns="http://www.w3.org/2000/svg"><path fill-rule="evenodd" clip-rule="evenodd" d="M9.683 7.563a4 4 0 10-2.122 2.12l1.127 1.128a.25.25 0 00.226.069l1.269-.254a.25.25 0 01.294.294l-.207 1.031a.25.25 0 00.294.295l1.034-.206a.25.25 0 01.293.294l-.253 1.27a.25.25 0 00.068.225l.141.141a.5.5 0 00.283.142l.99.141a1 1 0 001.132-1.131l-.142-.99a.5.5 0 00-.141-.283L9.683 7.563zM5.5 7a1.5 1.5 0 100-3 1.5 1.5 0 000 3z" fill="#fff"/></svg></svg>