<svg width="16" height="16" viewBox="0 0 16 16" fill="none" xmlns="http://www.w3.org/2000/svg">
<path fill-rule="evenodd" clip-rule="evenodd" d="M11.5355 3.05026C11.9261 2.65973 12.5592 2.65973 12.9497 3.05026C13.3403 3.44078 13.3403 4.07394 12.9497 4.46447L9.41421 8L12.9497 11.5355C13.3403 11.9261 13.3403 12.5592 12.9497 12.9498C12.5592 13.3403 11.9261 13.3403 11.5355 12.9498L8 9.41422L4.46446 12.9498C4.07394 13.3403 3.44077 13.3403 3.05025 12.9498C2.65972 12.5592 2.65972 11.9261 3.05025 11.5355L6.58578 8L3.05025 4.46447C2.65972 4.07394 2.65972 3.44078 3.05025 3.05026C3.44077 2.65973 4.07394 2.65973 4.46446 3.05026L8 6.58579L11.5355 3.05026Z" fill="#DE8270"/>
</svg>
